<svg xmlns="http://www.w3.org/2000/svg" width="50" height="50" viewBox="0 0 50 50" fill="none"><path d="M30.5659 20.3548L23.0534 27.4505L19.4479 23.7412C19.0482 23.3297 18.3901 23.3204 17.979 23.7201C17.5675 24.1202 17.5581 24.7779 17.9578 25.1894L22.282 29.6285C22.6838 30.0327 23.333 30.0465 23.7514 29.6594L32.0145 21.8657C32.2151 21.6764 32.3324 21.4151 32.3401 21.1395C32.3478 20.864 32.2457 20.5966 32.056 20.3963C31.6538 19.9783 30.9908 19.96 30.5659 20.3548Z" fill="#5044EB"></path><path d="M24.9929 9.43555C16.4071 9.43555 9.42578 16.4169 9.42578 25.0027C9.42578 33.5889 16.4071 40.5703 24.9929 40.5703C33.5792 40.5703 40.5605 33.5889 40.5605 25.0027C40.5605 16.4169 33.5792 9.43555 24.9929 9.43555ZM24.9929 38.4863C17.5533 38.4863 11.5098 32.4322 11.5098 25.0027C11.5098 17.5732 17.5533 11.5195 24.9929 11.5195C32.4399 11.5195 38.4765 17.5561 38.4765 25.0027C38.4765 32.4493 32.4399 38.4863 24.9929 38.4863Z" fill="#5044EB"></path><path d="M46.4154 19.2716L46.7594 13.0925C46.7834 12.6778 46.5579 12.2882 46.1863 12.1026L40.6845 9.32061L37.9024 3.81883C37.7132 3.45047 37.3261 3.2262 36.9126 3.24573L30.7229 3.5795L25.5651 0.171867C25.2175 -0.057289 24.7669 -0.057289 24.4189 0.171867L19.261 3.5795L13.0824 3.23556C12.6672 3.21114 12.2781 3.43663 12.0925 3.80865L9.31003 9.31044L3.80865 12.0925C3.43989 12.2813 3.21602 12.6684 3.23556 13.0824L3.57909 19.2614L0.171867 24.4193C-0.057289 24.7669 -0.057289 25.2175 0.171867 25.5655L3.56891 30.7335L3.22498 36.9126C3.20096 37.3273 3.42605 37.7168 3.79807 37.9024L9.29985 40.6845L12.0819 46.1863C12.2707 46.555 12.6578 46.7789 13.0718 46.7594L19.2508 46.4154L24.4087 49.8226C24.7543 50.0591 25.2093 50.0591 25.5549 49.8226L30.7127 46.4154L36.8918 46.7594C37.3066 46.7834 37.6957 46.5579 37.8817 46.1863L40.6637 40.6845L46.1655 37.9024C46.5339 37.7132 46.7581 37.3265 46.7386 36.9126L46.3947 30.7335L49.8019 25.5756C50.031 25.228 50.031 24.7771 49.8019 24.4294L46.4154 19.2716ZM44.4772 29.8791C44.3502 30.0656 44.2911 30.2898 44.3107 30.5149L44.6334 36.3602L39.4341 38.986C39.2359 39.0853 39.0751 39.2464 38.9758 39.4447L36.3496 44.644L30.5043 44.3213C30.2805 44.3131 30.0594 44.3709 29.8685 44.4877L24.992 47.7077L20.1158 44.4877C19.9465 44.3734 19.747 44.3115 19.5427 44.3107H19.4906L13.6449 44.6339L11.0191 39.4341C10.9198 39.2359 10.759 39.0751 10.5604 38.9758L5.35047 36.3602L5.67365 30.5149C5.68179 30.291 5.62359 30.07 5.50677 29.8791L2.28719 25.0025L5.50677 20.126C5.63417 19.9399 5.69319 19.7153 5.67365 19.4906L5.35047 13.6449L10.5502 11.0191C10.7485 10.9198 10.9092 10.759 11.0086 10.5608L13.6343 5.36105L19.48 5.68423C19.7035 5.69197 19.9245 5.63417 20.1158 5.51735L24.992 2.29777L29.8685 5.51735C30.055 5.64475 30.2796 5.70377 30.5043 5.68423L36.3496 5.36105L38.9758 10.5608C39.0751 10.759 39.2359 10.9198 39.4341 11.0191L44.6334 13.6449L44.3107 19.4906C44.3025 19.714 44.3607 19.9351 44.4772 20.126L47.6971 25.0025L44.4772 29.8791Z" fill="#5044EB"></path></svg>