<svg xmlns="http://www.w3.org/2000/svg" width="48" height="50" viewBox="0 0 48 50" fill="none"><path d="M27.6648 17.4219H24.5918C24.1872 17.4219 23.8594 17.7498 23.8594 18.1543C23.8594 18.5588 24.1872 18.8867 24.5918 18.8867H27.6648C28.0693 18.8867 28.3972 18.5588 28.3972 18.1543C28.3972 17.7498 28.0692 17.4219 27.6648 17.4219Z" fill="#5044EB"></path><path d="M27.6648 14.9707H24.5918C24.1872 14.9707 23.8594 15.2986 23.8594 15.7031C23.8594 16.1076 24.1872 16.4355 24.5918 16.4355H27.6648C28.0693 16.4355 28.3972 16.1076 28.3972 15.7031C28.3972 15.2986 28.0692 14.9707 27.6648 14.9707Z" fill="#5044EB"></path><path d="M23.64 12.3906C22.5332 12.3906 21.6328 13.291 21.6328 14.3978V19.4587C21.6328 20.5654 22.5332 21.4657 23.64 21.4657H28.6093C29.7161 21.4657 30.6165 20.5653 30.6165 19.4587V14.3978C30.6165 13.291 29.7161 12.3906 28.6093 12.3906H23.64ZM29.1515 14.3978V19.4587C29.1515 19.7577 28.9083 20.0009 28.6092 20.0009H23.6399C23.3409 20.0009 23.0976 19.7576 23.0976 19.4587V14.3978C23.0976 14.0988 23.3409 13.8555 23.6399 13.8555H28.6092C28.9083 13.8555 29.1515 14.0988 29.1515 14.3978Z" fill="#5044EB"></path><path d="M0.330102 38.0074L8.28731 49.2417C8.86731 50.0606 10.0183 50.245 10.8529 49.6538C11.6399 49.0964 17.8913 44.6686 18.8394 43.9971C19.6664 43.4112 19.8653 42.2733 19.284 41.4527L19.0907 41.1797C21.1265 40.1624 23.3791 39.6396 25.6605 39.669L35.3413 39.7869C37.1489 39.8327 38.9589 39.2838 40.4354 38.2434L46.3729 34.0601C47.7702 33.0756 48.1573 31.1383 47.2356 29.7413C46.7615 29.0228 46.0344 28.539 45.188 28.3789C45.1747 28.3764 45.1613 28.3747 45.148 28.3724C44.9983 27.4836 44.5337 26.6739 43.8699 26.1991C42.4441 25.1794 40.4735 25.5247 39.4699 26.9718L35.0606 33.3296L33.6058 33.1847C34.0072 32.7003 34.2765 32.1006 34.3571 31.4383C34.5794 29.6145 33.3253 27.9674 31.5018 27.6886L20.7481 26.0445C19.3374 25.8286 17.9188 26.162 16.7538 26.9828L11.6048 30.6106L11.3269 30.2183C10.7448 29.3963 9.60483 29.2085 8.77922 29.7934C7.82949 30.4661 1.73892 34.78 0.79271 35.4502C-0.0411957 36.0409 -0.253505 37.1835 0.330102 38.0074ZM40.6737 27.8067C41.212 27.0306 42.2585 26.8478 43.0179 27.3907C43.3269 27.6117 43.5647 28.0135 43.6725 28.4615C43.3459 28.5619 43.0383 28.7177 42.779 28.9003L37.1789 32.8459L40.6737 27.8067ZM17.5975 28.1803C18.4516 27.5785 19.4917 27.3344 20.5268 27.4925L31.2805 29.1368C32.3163 29.2952 33.0291 30.2282 32.9031 31.2611C32.7908 32.1836 32.032 32.8913 31.099 32.944C30.9889 32.9501 31.4476 32.9823 27.0288 32.6293C26.6243 32.598 26.2725 32.8979 26.2403 33.3011C26.2081 33.7043 26.5088 34.0574 26.9121 34.0895C27.0101 34.0973 35.7108 34.7849 35.9144 34.8868C36.4201 34.9383 36.9504 34.7989 37.3681 34.5046L39.9643 32.6753L43.6228 30.0977C44.3844 29.561 45.4749 29.7324 46.0129 30.5478C46.5032 31.2908 46.2863 32.3292 45.5295 32.8624L39.5919 37.0457C38.3707 37.9062 36.8771 38.3595 35.3686 38.3221L25.6784 38.2042C23.0903 38.1745 20.5309 38.7816 18.2341 39.97C17.6632 39.1639 13.0315 32.6247 12.4514 31.8059L17.5975 28.1803ZM9.62592 30.9889C9.79506 30.8692 10.0204 30.9082 10.1316 31.065C10.6629 31.815 17.0915 40.8912 17.415 41.348L18.0888 42.2994C18.1996 42.4558 18.1622 42.6817 17.9929 42.8016L16.2693 44.0224C16.1497 43.8536 8.02198 32.3784 7.90235 32.2096L9.62592 30.9889ZM1.63931 36.6456L6.70691 33.0563C6.82654 33.2251 14.9543 44.7003 15.0739 44.8692L10.0063 48.4584C9.83061 48.5827 9.59574 48.5544 9.48275 48.3949L1.52544 37.1607C1.41626 37.0065 1.45815 36.7741 1.63931 36.6456Z" fill="#5044EB"></path><path d="M40.7474 22.617H32.5235C32.1189 22.617 31.791 22.945 31.791 23.3495C31.791 23.754 32.1189 24.0819 32.5235 24.0819H40.7474C41.9097 24.0819 42.8554 23.1362 42.8554 21.9738V2.10796C42.8554 0.945627 41.9098 0 40.7474 0C40.0027 0 21.643 0 20.8815 0C19.7192 0 18.7734 0.945627 18.7734 2.10796V21.9737C18.7734 23.1362 19.7192 24.0818 20.8815 24.0818H29.1054C29.51 24.0818 29.8379 23.7539 29.8379 23.3494C29.8379 22.9449 29.51 22.6169 29.1054 22.6169H20.8815C20.5268 22.6169 20.2383 22.3283 20.2383 21.9737V2.10796C20.2383 1.75336 20.5268 1.46488 20.8815 1.46488H27.3314V9.44162C27.3314 10.4102 28.4089 10.9812 29.2095 10.4571L30.8144 9.40685L32.4193 10.457C33.2251 10.9845 34.2974 10.4048 34.2974 9.44162V6.65845C34.2974 6.25395 33.9696 5.92601 33.565 5.92601C33.1604 5.92601 32.8325 6.25395 32.8325 6.65845V8.97686L31.479 8.0911C31.0752 7.82694 30.5535 7.82703 30.15 8.0911L28.7964 8.97686V1.46488H32.8326V3.24041C32.8326 3.64491 33.1605 3.97284 33.5651 3.97284C33.9697 3.97284 34.2975 3.64491 34.2975 3.24041V1.46488H40.7475C41.1022 1.46488 41.3907 1.75336 41.3907 2.10796V21.9737C41.3906 22.3285 41.1021 22.617 40.7474 22.617Z" fill="#5044EB"></path></svg>