<svg xmlns="http://www.w3.org/2000/svg" width="44" height="60" viewBox="0 0 44 60" fill="none"><path d="M37.207 44.1797H33.3284C32.9057 41.5266 30.6022 39.4922 27.832 39.4922H26.8069L26.0566 35.3906H26.1744C26.6598 35.3906 27.0533 34.9971 27.0533 34.5117C27.0533 34.0263 26.6598 33.6328 26.1744 33.6328H25.7352L25.3402 31.473C26.6167 31.0441 27.5392 29.8372 27.5392 28.418C27.5392 27.8709 27.4037 27.3466 27.1516 26.8832C29.9371 25.4593 32.0495 22.9179 32.9348 19.9206C39.735 15.9984 43.9453 8.73855 43.9453 0.878906C43.9453 0.393516 43.5518 0 43.0664 0H35.7318C35.7293 0 8.21684 0 8.21684 0C8.21227 0 0.878906 0 0.878906 0C0.393516 0 0 0.393516 0 0.878906C0 8.73855 4.21031 15.9983 11.0105 19.9205C11.8956 22.9174 14.0081 25.4591 16.7938 26.8832C16.5417 27.3466 16.4062 27.8709 16.4062 28.418C16.4062 29.8371 17.3288 31.0441 18.6053 31.473L18.2102 33.6328H17.7711C17.2857 33.6328 16.8922 34.0263 16.8922 34.5117C16.8922 34.9971 17.2857 35.3906 17.7711 35.3906H17.8888L17.1386 39.4922H16.1133C13.3431 39.4922 11.0396 41.5266 10.617 44.1797H6.73828C6.25289 44.1797 5.85938 44.5732 5.85938 45.0586V59.1211C5.85938 59.6065 6.25289 60 6.73828 60H37.207C37.6924 60 38.0859 59.6065 38.0859 59.1211V45.0586C38.0859 44.5732 37.6924 44.1797 37.207 44.1797ZM36.4688 1.75781H42.1684C41.8924 8.09906 38.6449 13.9323 33.45 17.5204L36.4688 1.75781ZM1.77691 1.75781H7.47656L10.4953 17.5204C5.30039 13.9324 2.05289 8.09918 1.77691 1.75781ZM18.1641 28.418C18.1641 27.9586 18.3757 27.5341 18.7446 27.2532C18.9984 27.0601 19.1277 26.7445 19.0822 26.4287C19.0368 26.113 18.8238 25.8466 18.5258 25.7329C15.424 24.5483 13.1075 21.7927 12.4808 18.5423L9.26637 1.75781H34.6791L31.4648 18.5412C30.8476 21.7418 28.5928 24.4609 25.5639 25.675H21.728C21.2426 25.675 20.8491 26.0685 20.8491 26.5539C20.8491 27.0393 21.2426 27.4328 21.728 27.4328H25.3946C25.6416 27.7009 25.7812 28.0473 25.7812 28.418C25.7812 29.2257 25.1242 29.8828 24.3164 29.8828H19.6289C18.8211 29.8828 18.1641 29.2257 18.1641 28.418ZM24.2698 35.3906L25.02 39.4922H18.9254L19.6757 35.3906H24.2698ZM19.9971 33.6328L20.3616 31.6406H23.5836L23.9481 33.6328H19.9971ZM16.1133 41.25H17.8684C17.876 41.25 26.0694 41.25 26.0694 41.25C26.077 41.25 27.8321 41.25 27.8321 41.25C29.6297 41.25 31.1393 42.5021 31.5373 44.1797H12.4082C12.8061 42.5021 14.3157 41.25 16.1133 41.25ZM36.3281 58.2422H7.61719V45.9375H36.3281V58.2422Z" fill="white"></path><path d="M33.6914 47.6953H10.2539C9.76852 47.6953 9.375 48.0888 9.375 48.5742V55.6055C9.375 56.0909 9.76852 56.4844 10.2539 56.4844H33.6914C34.1768 56.4844 34.5703 56.0909 34.5703 55.6055V48.5742C34.5703 48.0888 34.1768 47.6953 33.6914 47.6953ZM32.8125 54.7266H11.1328V49.4531H32.8125V54.7266Z" fill="white"></path></svg>