<svg xmlns="http://www.w3.org/2000/svg" width="44" height="60" viewBox="0 0 44 60" fill="none"><path d="M41.7869 18.5203C41.3985 17.9682 41.0882 17.363 40.8652 16.7225C40.736 16.0259 40.7042 15.314 40.7705 14.6083C40.9321 13.3774 40.7476 12.125 40.2383 10.997C39.5287 9.97392 38.5478 9.1785 37.4108 8.70401C36.7882 8.41635 36.2088 8.03986 35.69 7.58582C35.2453 7.05622 34.8763 6.46506 34.594 5.82994C34.129 4.66956 33.3494 3.6685 32.3466 2.94417C31.2414 2.42577 30.0148 2.23783 28.8091 2.40218C28.117 2.46986 27.419 2.43734 26.7358 2.30558C26.1077 2.07841 25.5142 1.76196 24.9728 1.36559C23.9877 0.586452 22.804 0.112457 21.5625 0C20.3209 0.112247 19.137 0.586107 18.1517 1.36519C17.6105 1.76134 17.0173 2.07778 16.3897 2.30518C15.7067 2.43589 15.0092 2.4684 14.3174 2.40178C13.111 2.2372 11.8836 2.4255 10.7779 2.94477C9.77531 3.66896 8.99587 4.66981 8.53101 5.82994C8.24906 6.46522 7.88005 7.0564 7.43504 7.58572C6.91597 8.03946 6.33656 8.41596 5.71406 8.70401C4.57674 9.1784 3.59558 9.97382 2.88565 10.997C2.37762 12.1246 2.19342 13.3761 2.35443 14.6063C2.42079 15.3124 2.38892 16.0245 2.25975 16.7215C2.03695 17.3624 1.72662 17.9679 1.33795 18.5203C0.574481 19.5254 0.110079 20.7331 0 21.9998C0.110016 23.2666 0.574457 24.4745 1.33805 25.4797C1.7265 26.0319 2.03681 26.6371 2.25985 27.2775C2.38896 27.9742 2.42084 28.686 2.35453 29.3918C2.19287 30.6227 2.37745 31.8751 2.88673 33.0031C3.59635 34.0261 4.57717 34.8216 5.71416 35.296C6.33681 35.5837 6.91624 35.9602 7.43504 36.4142C7.87969 36.9437 8.24867 37.5347 8.53101 38.1696C8.80752 38.7404 9.12578 39.2892 9.48309 39.8112L3.97975 55.2379C3.91668 55.4149 3.9039 55.6065 3.94286 55.7906C3.98183 55.9747 4.07097 56.1438 4.20001 56.2785C4.32905 56.4132 4.49275 56.508 4.67227 56.5519C4.85178 56.5958 5.03981 56.5871 5.21469 56.5268L10.4167 54.734L13.2729 59.52C13.3604 59.6666 13.4834 59.7877 13.6301 59.8718C13.7768 59.9559 13.9422 60 14.1104 60C14.142 60 14.1745 59.998 14.207 59.9951C14.3908 59.9766 14.5657 59.9054 14.7115 59.7898C14.8573 59.6742 14.9681 59.5189 15.0311 59.3418L20.5556 43.8579C21.2141 44.0476 21.9113 44.0476 22.5698 43.8579L28.0943 59.3418C28.1573 59.5189 28.2681 59.6742 28.4139 59.7898C28.5597 59.9054 28.7346 59.9766 28.9184 59.9951C28.9509 59.998 28.9834 60 29.015 60C29.1832 60 29.3486 59.9559 29.4953 59.8718C29.642 59.7877 29.765 59.6666 29.8525 59.52L32.7086 54.734L37.9108 56.5267C38.0857 56.587 38.2737 56.5957 38.4532 56.5518C38.6327 56.5079 38.7964 56.4131 38.9255 56.2784C39.0545 56.1437 39.1437 55.9746 39.1826 55.7905C39.2216 55.6064 39.2088 55.4148 39.1457 55.2378L33.642 39.8104C33.999 39.2885 34.3172 38.74 34.594 38.1695C34.8759 37.5342 35.2449 36.9431 35.69 36.4137C36.209 35.96 36.7884 35.5836 37.4109 35.2955C38.5483 34.8212 39.5294 34.0257 40.2393 33.0026C40.7474 31.8749 40.9316 30.6234 40.7706 29.3933C40.7042 28.6872 40.7361 27.975 40.8652 27.278C41.0881 26.6372 41.3984 26.0316 41.787 25.4792C42.5505 24.4741 43.0149 23.2664 43.125 21.9998C43.0149 20.7331 42.5505 19.5254 41.7869 18.5203ZM13.8871 56.7025L11.6838 53.0102C11.568 52.8162 11.3908 52.6682 11.1815 52.5907C10.9722 52.5131 10.7433 52.5106 10.5324 52.5835L6.51913 53.9663L11.0721 41.2027C12.1084 41.5912 13.2196 41.7264 14.3163 41.5973C15.0084 41.5301 15.7063 41.5627 16.3896 41.6939C17.0177 41.9212 17.6112 42.2378 18.1526 42.6344C18.3515 42.7635 18.5573 42.8954 18.7674 43.0244L13.8871 56.7025ZM32.5926 52.5835C32.3817 52.5106 32.1528 52.5131 31.9435 52.5907C31.7342 52.6682 31.557 52.8162 31.4412 53.0102L29.2379 56.7025L24.358 43.0249C24.5681 42.8949 24.7739 42.7635 24.9728 42.6344C25.514 42.238 26.1071 41.9214 26.7349 41.6939C27.4177 41.5626 28.1153 41.5301 28.8071 41.5973C29.9045 41.727 31.0163 41.5915 32.0529 41.2018L36.6059 53.9663L32.5926 52.5835ZM40.133 24.4051C39.6312 25.1259 39.2397 25.9205 38.972 26.7614C38.7849 27.652 38.7307 28.5662 38.8111 29.4733C38.935 30.3257 38.8424 31.1962 38.5422 32.0017C38.0029 32.6796 37.3009 33.2037 36.5044 33.5231C35.7017 33.8984 34.9597 34.3963 34.304 34.9997C33.712 35.6684 33.2236 36.4255 32.8559 37.2447C32.5428 38.0574 32.0291 38.7736 31.3646 39.3238C30.575 39.6293 29.722 39.7238 28.8866 39.5982C27.9975 39.5167 27.1015 39.572 26.2285 39.7623C25.4047 40.0357 24.6263 40.4351 23.92 40.9469C23.2382 41.5026 22.4252 41.8656 21.5625 41.9996C20.6998 41.8656 19.8868 41.5026 19.205 40.9469C18.4985 40.4349 17.7197 40.0354 16.8955 39.7623C16.3455 39.6243 15.7801 39.5604 15.2138 39.5723C14.8865 39.5723 14.5601 39.5859 14.2375 39.5986C13.4021 39.7245 12.5489 39.63 11.7594 39.3242C11.0949 38.774 10.5812 38.0578 10.2683 37.2451C9.90043 36.426 9.41242 35.6688 8.82102 34.9997C8.1656 34.3957 7.42354 33.8974 6.62057 33.5222C5.82407 33.2028 5.12209 32.6787 4.58282 32.0007C4.28269 31.1953 4.19009 30.3248 4.31387 29.4724C4.39429 28.5653 4.34007 27.651 4.15304 26.7604C3.88512 25.9199 3.49364 25.1257 2.99199 24.4051C2.44737 23.7094 2.09156 22.88 1.96023 21.9998C2.09156 21.1196 2.44737 20.2901 2.99199 19.5945C3.49384 18.8736 3.88533 18.0791 4.15304 17.2381C4.34009 16.3476 4.39431 15.4333 4.31387 14.5263C4.19001 13.6739 4.28262 12.8033 4.58282 11.9979C5.1221 11.3199 5.82408 10.7958 6.62057 10.4765C7.42329 10.1012 8.16529 9.60326 8.82102 8.99991C9.41301 8.33119 9.90135 7.57409 10.2691 6.75483C10.5822 5.94218 11.0959 5.22596 11.7604 4.67575C12.5498 4.36972 13.403 4.27525 14.2384 4.40136C15.1275 4.48287 16.0235 4.42756 16.8965 4.23726C17.7203 3.9639 18.4987 3.56449 19.205 3.05267C19.8868 2.49701 20.6998 2.13398 21.5625 1.99998C22.4252 2.13398 23.2382 2.49701 23.92 3.05267C24.6265 3.56469 25.4053 3.96412 26.2295 4.23726C27.1024 4.42756 27.9984 4.48287 28.8875 4.40136C29.7229 4.27505 30.5762 4.36952 31.3656 4.67575C32.0301 5.22597 32.5438 5.94219 32.8567 6.75483C33.2246 7.57384 33.7126 8.33088 34.304 8.99991C34.9594 9.6039 35.7015 10.1022 36.5044 10.4774C37.3009 10.7968 38.0029 11.3209 38.5422 11.9989C38.8423 12.8043 38.9349 13.6748 38.8111 14.5272C38.7307 15.4343 38.7849 16.3485 38.972 17.2391C39.2399 18.0797 39.6314 18.8739 40.133 19.5945C40.6776 20.2901 41.0334 21.1196 41.1648 21.9998C41.0334 22.88 40.6776 23.7094 40.133 24.4051Z" fill="white"></path><path d="M21.5625 5.99994C18.4609 5.99994 15.429 6.93831 12.8501 8.6964C10.2713 10.4545 8.26131 12.9533 7.07439 15.8769C5.88747 18.8005 5.57692 22.0175 6.182 25.1212C6.78709 28.2249 8.28064 31.0758 10.4738 33.3134C12.6669 35.551 15.4612 37.0748 18.5031 37.6922C21.5451 38.3095 24.6982 37.9927 27.5637 36.7817C30.4292 35.5707 32.8783 33.52 34.6015 30.8888C36.3246 28.2577 37.2443 25.1643 37.2443 21.9998C37.2396 17.7578 35.5859 13.691 32.646 10.6915C29.7061 7.69203 25.7201 6.00478 21.5625 5.99994ZM21.5625 35.9996C18.8486 35.9996 16.1957 35.1786 13.9392 33.6402C11.6827 32.1019 9.92396 29.9154 8.8854 27.3573C7.84685 24.7992 7.57512 21.9843 8.10457 19.2685C8.63402 16.5528 9.94087 14.0583 11.8599 12.1004C13.7789 10.1425 16.2238 8.80911 18.8856 8.26892C21.5473 7.72874 24.3062 8.00598 26.8135 9.0656C29.3208 10.1252 31.4638 11.9196 32.9716 14.2219C34.4793 16.5241 35.2841 19.2309 35.2841 21.9998C35.28 25.7115 33.833 29.27 31.2606 31.8946C28.6882 34.5191 25.2004 35.9955 21.5625 35.9996Z" fill="white"></path><path d="M25.079 17.0105L22.4412 11.5575C22.3512 11.4013 22.2228 11.2719 22.0686 11.1819C21.9145 11.092 21.7401 11.0446 21.5625 11.0446C21.3849 11.0446 21.2105 11.092 21.0564 11.1819C20.9022 11.2719 20.7738 11.4013 20.6838 11.5575L18.0459 17.0105L12.1471 17.8855C11.9662 17.9124 11.7963 17.9903 11.6565 18.1105C11.5167 18.2307 11.4127 18.3884 11.3561 18.5657C11.2996 18.7431 11.2928 18.9331 11.3365 19.1142C11.3802 19.2953 11.4727 19.4603 11.6035 19.5906L15.8723 23.8357L14.8644 29.8308C14.8336 30.0147 14.8538 30.2037 14.9227 30.3766C14.9917 30.5494 15.1066 30.699 15.2546 30.8086C15.4026 30.9183 15.5777 30.9835 15.7601 30.9969C15.9425 31.0103 16.1249 30.9713 16.2867 30.8845L21.5625 28.0544L26.8383 30.8844C27.0001 30.9713 27.1825 31.0102 27.3649 30.9968C27.5473 30.9834 27.7224 30.9182 27.8704 30.8085C28.0184 30.6989 28.1333 30.5493 28.2023 30.3765C28.2712 30.2036 28.2914 30.0146 28.2606 29.8307L27.2527 23.8356L31.5215 19.5905C31.6523 19.4602 31.7448 19.2952 31.7885 19.1141C31.8322 18.933 31.8254 18.743 31.7689 18.5656C31.7123 18.3883 31.6083 18.2306 31.4685 18.1104C31.3287 17.9902 31.1588 17.9123 30.9779 17.8854L25.079 17.0105ZM25.5155 22.7713C25.4019 22.8844 25.3169 23.0241 25.2679 23.1782C25.2188 23.3323 25.2073 23.4963 25.2341 23.656L25.9931 28.1716L22.019 26.0397C21.8783 25.9641 21.7216 25.9245 21.5625 25.9245C21.4034 25.9245 21.2467 25.9641 21.106 26.0397L17.1324 28.1716L17.8914 23.656C17.9182 23.4963 17.9067 23.3323 17.8576 23.1782C17.8086 23.0241 17.7236 22.8844 17.61 22.7713L14.3939 19.573L18.838 18.9139C18.9953 18.8907 19.1447 18.8288 19.2733 18.7335C19.4018 18.6383 19.5058 18.5125 19.576 18.367L21.5625 14.2599L23.5495 18.3672C23.6197 18.5127 23.7237 18.6385 23.8522 18.7337C23.9808 18.829 24.1302 18.8909 24.2875 18.9141L28.7315 19.5732L25.5155 22.7713Z" fill="white"></path></svg>