<svg xmlns="http://www.w3.org/2000/svg" width="60" height="60" viewBox="0 0 60 60" fill="none"><path d="M54 32.9999V30.9999C54.552 30.9999 55 30.5523 55 29.9999V24C55 23.4476 54.552 23 54 23H48.6L48.4062 22.2488C47.9641 20.5308 47.2773 18.8851 46.366 17.3629L45.966 16.6937L49.8 12.8531C50.1859 12.4664 50.1859 11.8398 49.8 11.4531L45.5531 7.19998C45.1609 6.82616 44.5449 6.82616 44.1527 7.19998L40.3117 11.041L39.643 10.641C38.1184 9.72928 36.4711 9.04256 34.7508 8.59998L34 8.40467V2.99999C34 2.44765 33.5523 2 33 2H27C26.4477 2 26 2.44765 26 2.99999V8.39998L25.2488 8.59412C23.5309 9.03592 21.8852 9.72264 20.3621 10.6328L19.693 11.0332L15.8531 7.19998C15.4605 6.82303 14.8406 6.82303 14.448 7.19998L10.2 11.4469C10.0133 11.6332 9.9082 11.8863 9.9082 12.15C9.9082 12.414 10.0133 12.6668 10.2 12.8531L14.041 16.6937L13.641 17.3629C12.7301 18.8851 12.043 20.5308 11.6012 22.2488L11.4051 23H6C5.44766 23 5 23.4476 5 24V29.9999C5 30.5523 5.44766 30.9999 6 30.9999V32.9999C4.34336 32.9999 3 31.6566 3 29.9999V24C3 22.3433 4.34336 21 6 21H9.86914C10.2816 19.6171 10.8395 18.282 11.5332 17.0172L8.7832 14.2672C8.2207 13.7058 7.90469 12.9441 7.90469 12.15C7.90469 11.3558 8.2207 10.5941 8.7832 10.0332L13.0332 5.78319C14.2172 4.64999 16.084 4.64999 17.268 5.78319L20.0172 8.53201C21.282 7.83865 22.6176 7.28202 24 6.86991V2.99999C24 1.34336 25.3434 0 27 0H33C34.6566 0 36 1.34336 36 2.99999V6.86991C37.3828 7.28202 38.7176 7.83983 39.9828 8.53319L42.7328 5.78319C43.9172 4.64999 45.7836 4.64999 46.968 5.78319L51.2172 10.032C51.7793 10.5933 52.0949 11.3543 52.0949 12.1488C52.0949 12.9433 51.7793 13.705 51.2172 14.266L48.4672 17.016C49.1605 18.2816 49.718 19.6171 50.1309 21H54C55.6566 21 57 22.3433 57 24V29.9999C57 31.6566 55.6566 32.9999 54 32.9999Z" fill="white"></path><path d="M44 26.9999H42C42 20.3726 36.6273 15 30 15C23.3727 15 18 20.3726 18 26.9999H16C16 19.2679 22.268 13 30 13C37.7316 13 44 19.2679 44 26.9999Z" fill="white"></path><path d="M30 34.9999C26.6863 34.9999 24 32.3132 24 28.9999C24 25.6863 26.6863 23 30 23C33.3141 23 36 25.6863 36 28.9999C35.9965 32.3124 33.3125 34.9964 30 34.9999ZM30 24.9999C27.791 24.9999 26 26.791 26 28.9999C26 31.2089 27.791 32.9999 30 32.9999C32.209 32.9999 34 31.2089 34 28.9999C34 26.791 32.209 24.9999 30 24.9999Z" fill="white"></path><path d="M47 38.9999C43.6863 38.9999 41 36.3132 41 32.9999C41 29.6863 43.6863 26.9999 47 26.9999C50.3137 26.9999 53 29.6863 53 32.9999C52.9965 36.3124 50.3125 38.9964 47 38.9999ZM47 28.9999C44.791 28.9999 43 30.791 43 32.9999C43 35.2089 44.791 36.9999 47 36.9999C49.209 36.9999 51 35.2089 51 32.9999C51 30.791 49.209 28.9999 47 28.9999Z" fill="white"></path><path d="M13 38.9999C9.68633 38.9999 7 36.3132 7 32.9999C7 29.6863 9.68633 26.9999 13 26.9999C16.3141 26.9999 19 29.6863 19 32.9999C18.9965 36.3124 16.3125 38.9964 13 38.9999ZM13 28.9999C10.791 28.9999 9 30.791 9 32.9999C9 35.2089 10.791 36.9999 13 36.9999C15.209 36.9999 17 35.2089 17 32.9999C17 30.791 15.209 28.9999 13 28.9999Z" fill="white"></path><path d="M56.0656 41.5655C54.5754 40.5413 52.8086 39.9948 51 39.9999H43C42.5137 40.0042 42.0281 40.0484 41.5488 40.1316C40.909 39.1308 40.0766 38.2675 39.1 37.5905C38.9535 37.48 38.7996 37.3796 38.6391 37.2909C37.2402 36.4437 35.6352 35.9976 34 35.9999H26C22.9418 35.989 20.0922 37.5495 18.4539 40.1316C17.9734 40.0484 17.4871 40.0042 17 39.9999H9C7.19297 39.9948 5.42656 40.5405 3.93711 41.5636C1.47539 43.2386 0.0015625 46.0226 0 48.9999V52.9999C0.0035156 55.7304 1.59219 58.21 4.07227 59.3538C4.98789 59.785 5.98828 60.0057 7 59.9999H17V57.9999H8V46.9999H6V57.8995C5.62344 57.8241 5.25781 57.7022 4.91094 57.5378C3.13945 56.721 2.00391 54.9503 2 52.9999V48.9999C2.00234 46.6827 3.15039 44.5167 5.06602 43.2136C6.22344 42.4191 7.5957 41.996 9 41.9999H17C17.1762 41.9999 17.3461 42.0187 17.518 42.0304C17.1797 42.9843 17.0043 43.9882 17 44.9999V54.9999C17.0035 57.76 19.2402 59.9964 22 59.9999H25V43.9999H23V57.9999H22C20.3434 57.9999 19 56.6565 19 54.9999V44.9999C19 41.1335 22.1344 37.9999 26 37.9999H34C35.2867 38.0007 36.5477 38.3569 37.6449 39.0288C37.7465 39.0843 37.8441 39.1468 37.9367 39.2155C38.8738 39.8573 39.643 40.7148 40.1789 41.7155C40.7176 42.7265 41 43.8542 41 44.9999V54.9999C41 56.6565 39.6566 57.9999 38 57.9999H37V43.9999H35V59.9999H38C40.7602 59.9964 42.9965 57.76 43 54.9999V44.9999C42.9953 43.9882 42.8207 42.9847 42.4828 42.0304C42.6551 42.0187 42.825 41.9999 43 41.9999H51C52.4051 41.996 53.7785 42.4202 54.9367 43.2155C56.8508 44.5194 57.9973 46.6839 58 48.9999V52.9999C57.9965 54.9573 56.8523 56.7331 55.0723 57.5456C54.7305 57.7073 54.3703 57.826 54 57.8995V46.9999H52V57.9999H43V59.9999H53C54.0059 60.0061 55.0004 59.7882 55.9109 59.3616C58.3992 58.2214 59.9961 55.737 60 52.9999V48.9999C59.9984 46.0237 58.5258 43.2409 56.0656 41.5655Z" fill="white"></path><path d="M26 57.9999H34V59.9999H26V57.9999Z" fill="white"></path></svg>